<mxfile host="app.diagrams.net" modified="2023-10-24T18:40:30.437Z" agent="Mozilla/5.0 (Windows NT 10.0; Win64; x64) AppleWebKit/537.36 (KHTML, like Gecko) Chrome/118.0.0.0 Safari/537.36" etag="_rZGOGN5qeFxlrvTmSOG" version="22.0.6" type="device">
  <diagram id="R2lEEEUBdFMjLlhIrx00" name="Page-1">
    <mxGraphModel dx="1764" dy="773" grid="1" gridSize="10" guides="1" tooltips="1" connect="1" arrows="1" fold="1" page="1" pageScale="1" pageWidth="850" pageHeight="1100" math="0" shadow="0" extFonts="Permanent Marker^https://fonts.googleapis.com/css?family=Permanent+Marker">
      <root>
        <mxCell id="0" />
        <mxCell id="1" parent="0" />
        <mxCell id="C-vyLk0tnHw3VtMMgP7b-1" value="" style="edgeStyle=entityRelationEdgeStyle;endArrow=ERzeroToMany;startArrow=ERone;endFill=1;startFill=0;exitX=1;exitY=0.5;exitDx=0;exitDy=0;" parent="1" source="QGc1-MY62SfUArBQq9Xx-4" target="QGc1-MY62SfUArBQq9Xx-66" edge="1">
          <mxGeometry width="100" height="100" relative="1" as="geometry">
            <mxPoint x="370" y="165" as="sourcePoint" />
            <mxPoint x="430" y="151" as="targetPoint" />
            <Array as="points">
              <mxPoint x="480" y="130" />
            </Array>
          </mxGeometry>
        </mxCell>
        <mxCell id="C-vyLk0tnHw3VtMMgP7b-12" value="" style="edgeStyle=entityRelationEdgeStyle;endArrow=ERzeroToMany;startArrow=ERone;endFill=1;startFill=0;" parent="1" source="QGc1-MY62SfUArBQq9Xx-76" target="C-vyLk0tnHw3VtMMgP7b-14" edge="1">
          <mxGeometry width="100" height="100" relative="1" as="geometry">
            <mxPoint x="350" y="170" as="sourcePoint" />
            <mxPoint x="350" y="390" as="targetPoint" />
          </mxGeometry>
        </mxCell>
        <mxCell id="C-vyLk0tnHw3VtMMgP7b-13" value="LoaiDN" style="shape=table;startSize=30;container=1;collapsible=1;childLayout=tableLayout;fixedRows=1;rowLines=0;fontStyle=1;align=center;resizeLast=1;" parent="1" vertex="1">
          <mxGeometry x="900" y="100" width="250" height="100" as="geometry" />
        </mxCell>
        <mxCell id="C-vyLk0tnHw3VtMMgP7b-14" value="" style="shape=partialRectangle;collapsible=0;dropTarget=0;pointerEvents=0;fillColor=none;points=[[0,0.5],[1,0.5]];portConstraint=eastwest;top=0;left=0;right=0;bottom=1;" parent="C-vyLk0tnHw3VtMMgP7b-13" vertex="1">
          <mxGeometry y="30" width="250" height="30" as="geometry" />
        </mxCell>
        <mxCell id="C-vyLk0tnHw3VtMMgP7b-15" value="PK" style="shape=partialRectangle;overflow=hidden;connectable=0;fillColor=none;top=0;left=0;bottom=0;right=0;fontStyle=1;" parent="C-vyLk0tnHw3VtMMgP7b-14" vertex="1">
          <mxGeometry width="30" height="30" as="geometry">
            <mxRectangle width="30" height="30" as="alternateBounds" />
          </mxGeometry>
        </mxCell>
        <mxCell id="C-vyLk0tnHw3VtMMgP7b-16" value="id_LDN char(10) NOT NULL" style="shape=partialRectangle;overflow=hidden;connectable=0;fillColor=none;top=0;left=0;bottom=0;right=0;align=left;spacingLeft=6;fontStyle=5;" parent="C-vyLk0tnHw3VtMMgP7b-14" vertex="1">
          <mxGeometry x="30" width="220" height="30" as="geometry">
            <mxRectangle width="220" height="30" as="alternateBounds" />
          </mxGeometry>
        </mxCell>
        <mxCell id="C-vyLk0tnHw3VtMMgP7b-20" value="" style="shape=partialRectangle;collapsible=0;dropTarget=0;pointerEvents=0;fillColor=none;points=[[0,0.5],[1,0.5]];portConstraint=eastwest;top=0;left=0;right=0;bottom=0;" parent="C-vyLk0tnHw3VtMMgP7b-13" vertex="1">
          <mxGeometry y="60" width="250" height="30" as="geometry" />
        </mxCell>
        <mxCell id="C-vyLk0tnHw3VtMMgP7b-21" value="" style="shape=partialRectangle;overflow=hidden;connectable=0;fillColor=none;top=0;left=0;bottom=0;right=0;" parent="C-vyLk0tnHw3VtMMgP7b-20" vertex="1">
          <mxGeometry width="30" height="30" as="geometry">
            <mxRectangle width="30" height="30" as="alternateBounds" />
          </mxGeometry>
        </mxCell>
        <mxCell id="C-vyLk0tnHw3VtMMgP7b-22" value="name nvarchar(max)" style="shape=partialRectangle;overflow=hidden;connectable=0;fillColor=none;top=0;left=0;bottom=0;right=0;align=left;spacingLeft=6;" parent="C-vyLk0tnHw3VtMMgP7b-20" vertex="1">
          <mxGeometry x="30" width="220" height="30" as="geometry">
            <mxRectangle width="220" height="30" as="alternateBounds" />
          </mxGeometry>
        </mxCell>
        <mxCell id="QGc1-MY62SfUArBQq9Xx-3" value="User" style="shape=table;startSize=30;container=1;collapsible=1;childLayout=tableLayout;fixedRows=1;rowLines=0;fontStyle=1;align=center;resizeLast=1;html=1;" vertex="1" parent="1">
          <mxGeometry x="80" y="90" width="270" height="120" as="geometry" />
        </mxCell>
        <mxCell id="QGc1-MY62SfUArBQq9Xx-4" value="" style="shape=tableRow;horizontal=0;startSize=0;swimlaneHead=0;swimlaneBody=0;fillColor=none;collapsible=0;dropTarget=0;points=[[0,0.5],[1,0.5]];portConstraint=eastwest;top=0;left=0;right=0;bottom=1;" vertex="1" parent="QGc1-MY62SfUArBQq9Xx-3">
          <mxGeometry y="30" width="270" height="30" as="geometry" />
        </mxCell>
        <mxCell id="QGc1-MY62SfUArBQq9Xx-5" value="PK" style="shape=partialRectangle;connectable=0;fillColor=none;top=0;left=0;bottom=0;right=0;fontStyle=1;overflow=hidden;whiteSpace=wrap;html=1;" vertex="1" parent="QGc1-MY62SfUArBQq9Xx-4">
          <mxGeometry width="30" height="30" as="geometry">
            <mxRectangle width="30" height="30" as="alternateBounds" />
          </mxGeometry>
        </mxCell>
        <mxCell id="QGc1-MY62SfUArBQq9Xx-6" value="id char(10) NOT NULL" style="shape=partialRectangle;connectable=0;fillColor=none;top=0;left=0;bottom=0;right=0;align=left;spacingLeft=6;fontStyle=5;overflow=hidden;whiteSpace=wrap;html=1;" vertex="1" parent="QGc1-MY62SfUArBQq9Xx-4">
          <mxGeometry x="30" width="240" height="30" as="geometry">
            <mxRectangle width="240" height="30" as="alternateBounds" />
          </mxGeometry>
        </mxCell>
        <mxCell id="QGc1-MY62SfUArBQq9Xx-7" value="" style="shape=tableRow;horizontal=0;startSize=0;swimlaneHead=0;swimlaneBody=0;fillColor=none;collapsible=0;dropTarget=0;points=[[0,0.5],[1,0.5]];portConstraint=eastwest;top=0;left=0;right=0;bottom=0;" vertex="1" parent="QGc1-MY62SfUArBQq9Xx-3">
          <mxGeometry y="60" width="270" height="30" as="geometry" />
        </mxCell>
        <mxCell id="QGc1-MY62SfUArBQq9Xx-8" value="" style="shape=partialRectangle;connectable=0;fillColor=none;top=0;left=0;bottom=0;right=0;editable=1;overflow=hidden;whiteSpace=wrap;html=1;" vertex="1" parent="QGc1-MY62SfUArBQq9Xx-7">
          <mxGeometry width="30" height="30" as="geometry">
            <mxRectangle width="30" height="30" as="alternateBounds" />
          </mxGeometry>
        </mxCell>
        <mxCell id="QGc1-MY62SfUArBQq9Xx-9" value="email" style="shape=partialRectangle;connectable=0;fillColor=none;top=0;left=0;bottom=0;right=0;align=left;spacingLeft=6;overflow=hidden;whiteSpace=wrap;html=1;" vertex="1" parent="QGc1-MY62SfUArBQq9Xx-7">
          <mxGeometry x="30" width="240" height="30" as="geometry">
            <mxRectangle width="240" height="30" as="alternateBounds" />
          </mxGeometry>
        </mxCell>
        <mxCell id="QGc1-MY62SfUArBQq9Xx-10" value="" style="shape=tableRow;horizontal=0;startSize=0;swimlaneHead=0;swimlaneBody=0;fillColor=none;collapsible=0;dropTarget=0;points=[[0,0.5],[1,0.5]];portConstraint=eastwest;top=0;left=0;right=0;bottom=0;" vertex="1" parent="QGc1-MY62SfUArBQq9Xx-3">
          <mxGeometry y="90" width="270" height="30" as="geometry" />
        </mxCell>
        <mxCell id="QGc1-MY62SfUArBQq9Xx-11" value="" style="shape=partialRectangle;connectable=0;fillColor=none;top=0;left=0;bottom=0;right=0;editable=1;overflow=hidden;whiteSpace=wrap;html=1;" vertex="1" parent="QGc1-MY62SfUArBQq9Xx-10">
          <mxGeometry width="30" height="30" as="geometry">
            <mxRectangle width="30" height="30" as="alternateBounds" />
          </mxGeometry>
        </mxCell>
        <mxCell id="QGc1-MY62SfUArBQq9Xx-12" value="password" style="shape=partialRectangle;connectable=0;fillColor=none;top=0;left=0;bottom=0;right=0;align=left;spacingLeft=6;overflow=hidden;whiteSpace=wrap;html=1;" vertex="1" parent="QGc1-MY62SfUArBQq9Xx-10">
          <mxGeometry x="30" width="240" height="30" as="geometry">
            <mxRectangle width="240" height="30" as="alternateBounds" />
          </mxGeometry>
        </mxCell>
        <mxCell id="QGc1-MY62SfUArBQq9Xx-57" value="CT_User" style="swimlane;fontStyle=0;childLayout=stackLayout;horizontal=1;startSize=26;horizontalStack=0;resizeParent=1;resizeParentMax=0;resizeLast=0;collapsible=1;marginBottom=0;align=center;fontSize=14;strokeWidth=1;" vertex="1" parent="1">
          <mxGeometry x="430" y="80" width="330" height="236" as="geometry" />
        </mxCell>
        <mxCell id="QGc1-MY62SfUArBQq9Xx-65" value="" style="shape=table;startSize=0;container=1;collapsible=1;childLayout=tableLayout;fixedRows=1;rowLines=0;fontStyle=0;align=center;resizeLast=1;strokeColor=default;fillColor=none;collapsible=0;" vertex="1" parent="QGc1-MY62SfUArBQq9Xx-57">
          <mxGeometry y="26" width="330" height="30" as="geometry" />
        </mxCell>
        <mxCell id="QGc1-MY62SfUArBQq9Xx-66" value="" style="shape=tableRow;horizontal=0;startSize=0;swimlaneHead=0;swimlaneBody=0;fillColor=none;collapsible=0;dropTarget=0;points=[[0,0.5],[1,0.5]];portConstraint=eastwest;top=0;left=0;right=0;bottom=0;" vertex="1" parent="QGc1-MY62SfUArBQq9Xx-65">
          <mxGeometry width="330" height="30" as="geometry" />
        </mxCell>
        <mxCell id="QGc1-MY62SfUArBQq9Xx-67" value="&lt;b&gt;FK&lt;/b&gt;" style="shape=partialRectangle;connectable=0;fillColor=none;top=0;left=0;bottom=0;right=0;fontStyle=0;overflow=hidden;whiteSpace=wrap;html=1;" vertex="1" parent="QGc1-MY62SfUArBQq9Xx-66">
          <mxGeometry width="30" height="30" as="geometry">
            <mxRectangle width="30" height="30" as="alternateBounds" />
          </mxGeometry>
        </mxCell>
        <mxCell id="QGc1-MY62SfUArBQq9Xx-68" value="&lt;i&gt;&lt;b&gt;User_id char(10) NOT NULL&lt;/b&gt;&lt;/i&gt;" style="shape=partialRectangle;connectable=0;fillColor=none;top=0;left=0;bottom=0;right=0;align=left;spacingLeft=6;fontStyle=0;overflow=hidden;whiteSpace=wrap;html=1;" vertex="1" parent="QGc1-MY62SfUArBQq9Xx-66">
          <mxGeometry x="30" width="300" height="30" as="geometry">
            <mxRectangle width="300" height="30" as="alternateBounds" />
          </mxGeometry>
        </mxCell>
        <mxCell id="QGc1-MY62SfUArBQq9Xx-71" value="phone" style="text;strokeColor=none;fillColor=none;spacingLeft=4;spacingRight=4;overflow=hidden;rotatable=0;points=[[0,0.5],[1,0.5]];portConstraint=eastwest;fontSize=12;whiteSpace=wrap;html=1;" vertex="1" parent="QGc1-MY62SfUArBQq9Xx-57">
          <mxGeometry y="56" width="330" height="30" as="geometry" />
        </mxCell>
        <mxCell id="QGc1-MY62SfUArBQq9Xx-72" value="name" style="text;strokeColor=none;fillColor=none;spacingLeft=4;spacingRight=4;overflow=hidden;rotatable=0;points=[[0,0.5],[1,0.5]];portConstraint=eastwest;fontSize=12;whiteSpace=wrap;html=1;" vertex="1" parent="QGc1-MY62SfUArBQq9Xx-57">
          <mxGeometry y="86" width="330" height="30" as="geometry" />
        </mxCell>
        <mxCell id="QGc1-MY62SfUArBQq9Xx-75" value="" style="shape=table;startSize=0;container=1;collapsible=1;childLayout=tableLayout;fixedRows=1;rowLines=0;fontStyle=0;align=center;resizeLast=1;strokeColor=default;fillColor=none;collapsible=0;swimlaneLine=0;" vertex="1" parent="QGc1-MY62SfUArBQq9Xx-57">
          <mxGeometry y="116" width="330" height="30" as="geometry" />
        </mxCell>
        <mxCell id="QGc1-MY62SfUArBQq9Xx-76" value="" style="shape=tableRow;horizontal=0;startSize=0;swimlaneHead=0;swimlaneBody=0;fillColor=none;collapsible=0;dropTarget=0;points=[[0,0.5],[1,0.5]];portConstraint=eastwest;top=0;left=0;right=0;bottom=0;" vertex="1" parent="QGc1-MY62SfUArBQq9Xx-75">
          <mxGeometry width="330" height="30" as="geometry" />
        </mxCell>
        <mxCell id="QGc1-MY62SfUArBQq9Xx-77" value="&lt;b&gt;&lt;i&gt;FK&lt;/i&gt;&lt;/b&gt;" style="shape=partialRectangle;connectable=0;fillColor=none;top=0;left=0;bottom=0;right=0;fontStyle=0;overflow=hidden;whiteSpace=wrap;html=1;strokeColor=default;" vertex="1" parent="QGc1-MY62SfUArBQq9Xx-76">
          <mxGeometry width="30" height="30" as="geometry">
            <mxRectangle width="30" height="30" as="alternateBounds" />
          </mxGeometry>
        </mxCell>
        <mxCell id="QGc1-MY62SfUArBQq9Xx-78" value="&lt;b&gt;&lt;i&gt;LoaiDN_id_LDN char(10) NOT NULL&lt;/i&gt;&lt;/b&gt;" style="shape=partialRectangle;connectable=0;fillColor=none;top=0;left=0;bottom=0;right=0;align=left;spacingLeft=6;fontStyle=0;overflow=hidden;whiteSpace=wrap;html=1;" vertex="1" parent="QGc1-MY62SfUArBQq9Xx-76">
          <mxGeometry x="30" width="300" height="30" as="geometry">
            <mxRectangle width="300" height="30" as="alternateBounds" />
          </mxGeometry>
        </mxCell>
        <mxCell id="QGc1-MY62SfUArBQq9Xx-70" value="address" style="text;strokeColor=none;fillColor=none;spacingLeft=4;spacingRight=4;overflow=hidden;rotatable=0;points=[[0,0.5],[1,0.5]];portConstraint=eastwest;fontSize=12;whiteSpace=wrap;html=1;" vertex="1" parent="QGc1-MY62SfUArBQq9Xx-57">
          <mxGeometry y="146" width="330" height="30" as="geometry" />
        </mxCell>
        <mxCell id="QGc1-MY62SfUArBQq9Xx-73" value="spent_number" style="text;strokeColor=none;fillColor=none;spacingLeft=4;spacingRight=4;overflow=hidden;rotatable=0;points=[[0,0.5],[1,0.5]];portConstraint=eastwest;fontSize=12;whiteSpace=wrap;html=1;" vertex="1" parent="QGc1-MY62SfUArBQq9Xx-57">
          <mxGeometry y="176" width="330" height="30" as="geometry" />
        </mxCell>
        <mxCell id="QGc1-MY62SfUArBQq9Xx-60" value="active" style="text;strokeColor=none;fillColor=none;spacingLeft=4;spacingRight=4;overflow=hidden;rotatable=0;points=[[0,0.5],[1,0.5]];portConstraint=eastwest;fontSize=12;whiteSpace=wrap;html=1;" vertex="1" parent="QGc1-MY62SfUArBQq9Xx-57">
          <mxGeometry y="206" width="330" height="30" as="geometry" />
        </mxCell>
        <mxCell id="QGc1-MY62SfUArBQq9Xx-147" value="" style="shape=tableRow;horizontal=0;startSize=0;swimlaneHead=0;swimlaneBody=0;fillColor=none;collapsible=0;dropTarget=0;points=[[0,0.5],[1,0.5]];portConstraint=eastwest;top=0;left=0;right=0;bottom=0;" vertex="1" parent="1">
          <mxGeometry x="680" y="500" width="250" height="30" as="geometry" />
        </mxCell>
        <mxCell id="QGc1-MY62SfUArBQq9Xx-148" value="" style="shape=partialRectangle;connectable=0;fillColor=none;top=0;left=0;bottom=0;right=0;editable=1;overflow=hidden;whiteSpace=wrap;html=1;" vertex="1" parent="QGc1-MY62SfUArBQq9Xx-147">
          <mxGeometry width="30" height="30" as="geometry">
            <mxRectangle width="30" height="30" as="alternateBounds" />
          </mxGeometry>
        </mxCell>
        <mxCell id="QGc1-MY62SfUArBQq9Xx-150" value="Bus_License" style="swimlane;fontStyle=0;childLayout=stackLayout;horizontal=1;startSize=26;horizontalStack=0;resizeParent=1;resizeParentMax=0;resizeLast=0;collapsible=1;marginBottom=0;align=center;fontSize=14;strokeWidth=1;" vertex="1" parent="1">
          <mxGeometry x="930" y="462" width="330" height="176" as="geometry" />
        </mxCell>
        <mxCell id="QGc1-MY62SfUArBQq9Xx-151" value="" style="shape=table;startSize=0;container=1;collapsible=1;childLayout=tableLayout;fixedRows=1;rowLines=0;fontStyle=0;align=center;resizeLast=1;strokeColor=default;fillColor=none;collapsible=0;" vertex="1" parent="QGc1-MY62SfUArBQq9Xx-150">
          <mxGeometry y="26" width="330" height="30" as="geometry" />
        </mxCell>
        <mxCell id="QGc1-MY62SfUArBQq9Xx-152" value="" style="shape=tableRow;horizontal=0;startSize=0;swimlaneHead=0;swimlaneBody=0;fillColor=none;collapsible=0;dropTarget=0;points=[[0,0.5],[1,0.5]];portConstraint=eastwest;top=0;left=0;right=0;bottom=0;" vertex="1" parent="QGc1-MY62SfUArBQq9Xx-151">
          <mxGeometry width="330" height="30" as="geometry" />
        </mxCell>
        <mxCell id="QGc1-MY62SfUArBQq9Xx-153" value="&lt;b&gt;PK&lt;/b&gt;" style="shape=partialRectangle;connectable=0;fillColor=none;top=0;left=0;bottom=0;right=0;fontStyle=0;overflow=hidden;whiteSpace=wrap;html=1;" vertex="1" parent="QGc1-MY62SfUArBQq9Xx-152">
          <mxGeometry width="30" height="30" as="geometry">
            <mxRectangle width="30" height="30" as="alternateBounds" />
          </mxGeometry>
        </mxCell>
        <mxCell id="QGc1-MY62SfUArBQq9Xx-154" value="&lt;u&gt;&lt;b&gt;id_BL char(10) NOT NULL&lt;/b&gt;&lt;/u&gt;" style="shape=partialRectangle;connectable=0;fillColor=none;top=0;left=0;bottom=0;right=0;align=left;spacingLeft=6;fontStyle=0;overflow=hidden;whiteSpace=wrap;html=1;" vertex="1" parent="QGc1-MY62SfUArBQq9Xx-152">
          <mxGeometry x="30" width="300" height="30" as="geometry">
            <mxRectangle width="300" height="30" as="alternateBounds" />
          </mxGeometry>
        </mxCell>
        <mxCell id="QGc1-MY62SfUArBQq9Xx-155" value="loai_BL" style="text;strokeColor=none;fillColor=none;spacingLeft=4;spacingRight=4;overflow=hidden;rotatable=0;points=[[0,0.5],[1,0.5]];portConstraint=eastwest;fontSize=12;whiteSpace=wrap;html=1;" vertex="1" parent="QGc1-MY62SfUArBQq9Xx-150">
          <mxGeometry y="56" width="330" height="30" as="geometry" />
        </mxCell>
        <mxCell id="QGc1-MY62SfUArBQq9Xx-156" value="name nvarchar(max)" style="text;strokeColor=none;fillColor=none;spacingLeft=4;spacingRight=4;overflow=hidden;rotatable=0;points=[[0,0.5],[1,0.5]];portConstraint=eastwest;fontSize=12;whiteSpace=wrap;html=1;" vertex="1" parent="QGc1-MY62SfUArBQq9Xx-150">
          <mxGeometry y="86" width="330" height="30" as="geometry" />
        </mxCell>
        <mxCell id="QGc1-MY62SfUArBQq9Xx-161" value="license_date date" style="text;strokeColor=none;fillColor=none;spacingLeft=4;spacingRight=4;overflow=hidden;rotatable=0;points=[[0,0.5],[1,0.5]];portConstraint=eastwest;fontSize=12;whiteSpace=wrap;html=1;" vertex="1" parent="QGc1-MY62SfUArBQq9Xx-150">
          <mxGeometry y="116" width="330" height="30" as="geometry" />
        </mxCell>
        <mxCell id="QGc1-MY62SfUArBQq9Xx-162" value="granting_agencies&amp;nbsp;nvarchar(max)" style="text;strokeColor=none;fillColor=none;spacingLeft=4;spacingRight=4;overflow=hidden;rotatable=0;points=[[0,0.5],[1,0.5]];portConstraint=eastwest;fontSize=12;whiteSpace=wrap;html=1;" vertex="1" parent="QGc1-MY62SfUArBQq9Xx-150">
          <mxGeometry y="146" width="330" height="30" as="geometry" />
        </mxCell>
        <mxCell id="QGc1-MY62SfUArBQq9Xx-164" value="Products" style="swimlane;fontStyle=0;childLayout=stackLayout;horizontal=1;startSize=26;horizontalStack=0;resizeParent=1;resizeParentMax=0;resizeLast=0;collapsible=1;marginBottom=0;align=center;fontSize=14;strokeWidth=1;" vertex="1" parent="1">
          <mxGeometry x="40" y="281" width="330" height="116" as="geometry" />
        </mxCell>
        <mxCell id="QGc1-MY62SfUArBQq9Xx-165" value="" style="shape=table;startSize=0;container=1;collapsible=1;childLayout=tableLayout;fixedRows=1;rowLines=0;fontStyle=0;align=center;resizeLast=1;strokeColor=default;fillColor=none;collapsible=0;" vertex="1" parent="QGc1-MY62SfUArBQq9Xx-164">
          <mxGeometry y="26" width="330" height="30" as="geometry" />
        </mxCell>
        <mxCell id="QGc1-MY62SfUArBQq9Xx-166" value="" style="shape=tableRow;horizontal=0;startSize=0;swimlaneHead=0;swimlaneBody=0;fillColor=none;collapsible=0;dropTarget=0;points=[[0,0.5],[1,0.5]];portConstraint=eastwest;top=0;left=0;right=0;bottom=0;" vertex="1" parent="QGc1-MY62SfUArBQq9Xx-165">
          <mxGeometry width="330" height="30" as="geometry" />
        </mxCell>
        <mxCell id="QGc1-MY62SfUArBQq9Xx-167" value="&lt;b&gt;PK&lt;/b&gt;" style="shape=partialRectangle;connectable=0;fillColor=none;top=0;left=0;bottom=0;right=0;fontStyle=0;overflow=hidden;whiteSpace=wrap;html=1;" vertex="1" parent="QGc1-MY62SfUArBQq9Xx-166">
          <mxGeometry width="30" height="30" as="geometry">
            <mxRectangle width="30" height="30" as="alternateBounds" />
          </mxGeometry>
        </mxCell>
        <mxCell id="QGc1-MY62SfUArBQq9Xx-168" value="&lt;b&gt;&lt;u style=&quot;&quot;&gt;id char(10) NOT NULL&lt;/u&gt;&lt;/b&gt;" style="shape=partialRectangle;connectable=0;fillColor=none;top=0;left=0;bottom=0;right=0;align=left;spacingLeft=6;fontStyle=0;overflow=hidden;whiteSpace=wrap;html=1;" vertex="1" parent="QGc1-MY62SfUArBQq9Xx-166">
          <mxGeometry x="30" width="300" height="30" as="geometry">
            <mxRectangle width="300" height="30" as="alternateBounds" />
          </mxGeometry>
        </mxCell>
        <mxCell id="QGc1-MY62SfUArBQq9Xx-169" value="name" style="text;strokeColor=none;fillColor=none;spacingLeft=4;spacingRight=4;overflow=hidden;rotatable=0;points=[[0,0.5],[1,0.5]];portConstraint=eastwest;fontSize=12;whiteSpace=wrap;html=1;" vertex="1" parent="QGc1-MY62SfUArBQq9Xx-164">
          <mxGeometry y="56" width="330" height="30" as="geometry" />
        </mxCell>
        <mxCell id="QGc1-MY62SfUArBQq9Xx-170" value="price" style="text;strokeColor=none;fillColor=none;spacingLeft=4;spacingRight=4;overflow=hidden;rotatable=0;points=[[0,0.5],[1,0.5]];portConstraint=eastwest;fontSize=12;whiteSpace=wrap;html=1;" vertex="1" parent="QGc1-MY62SfUArBQq9Xx-164">
          <mxGeometry y="86" width="330" height="30" as="geometry" />
        </mxCell>
        <mxCell id="QGc1-MY62SfUArBQq9Xx-178" value="CT_Products" style="swimlane;fontStyle=0;childLayout=stackLayout;horizontal=1;startSize=26;horizontalStack=0;resizeParent=1;resizeParentMax=0;resizeLast=0;collapsible=1;marginBottom=0;align=center;fontSize=14;strokeWidth=1;" vertex="1" parent="1">
          <mxGeometry x="440" y="397" width="380" height="296" as="geometry" />
        </mxCell>
        <mxCell id="QGc1-MY62SfUArBQq9Xx-179" value="" style="shape=table;startSize=0;container=1;collapsible=1;childLayout=tableLayout;fixedRows=1;rowLines=0;fontStyle=0;align=center;resizeLast=1;strokeColor=default;fillColor=none;collapsible=0;" vertex="1" parent="QGc1-MY62SfUArBQq9Xx-178">
          <mxGeometry y="26" width="380" height="30" as="geometry" />
        </mxCell>
        <mxCell id="QGc1-MY62SfUArBQq9Xx-180" value="" style="shape=tableRow;horizontal=0;startSize=0;swimlaneHead=0;swimlaneBody=0;fillColor=none;collapsible=0;dropTarget=0;points=[[0,0.5],[1,0.5]];portConstraint=eastwest;top=0;left=0;right=0;bottom=0;" vertex="1" parent="QGc1-MY62SfUArBQq9Xx-179">
          <mxGeometry width="380" height="30" as="geometry" />
        </mxCell>
        <mxCell id="QGc1-MY62SfUArBQq9Xx-181" value="&lt;b&gt;FK&lt;/b&gt;" style="shape=partialRectangle;connectable=0;fillColor=none;top=0;left=0;bottom=0;right=0;fontStyle=0;overflow=hidden;whiteSpace=wrap;html=1;" vertex="1" parent="QGc1-MY62SfUArBQq9Xx-180">
          <mxGeometry width="30" height="30" as="geometry">
            <mxRectangle width="30" height="30" as="alternateBounds" />
          </mxGeometry>
        </mxCell>
        <mxCell id="QGc1-MY62SfUArBQq9Xx-182" value="&lt;i&gt;&lt;b&gt;Products_id char(10) NOT NULL&lt;/b&gt;&lt;/i&gt;" style="shape=partialRectangle;connectable=0;fillColor=none;top=0;left=0;bottom=0;right=0;align=left;spacingLeft=6;fontStyle=0;overflow=hidden;whiteSpace=wrap;html=1;" vertex="1" parent="QGc1-MY62SfUArBQq9Xx-180">
          <mxGeometry x="30" width="350" height="30" as="geometry">
            <mxRectangle width="350" height="30" as="alternateBounds" />
          </mxGeometry>
        </mxCell>
        <mxCell id="QGc1-MY62SfUArBQq9Xx-183" value="classify(phanloai) nvarchar(50) NOT NULL" style="text;strokeColor=none;fillColor=none;spacingLeft=4;spacingRight=4;overflow=hidden;rotatable=0;points=[[0,0.5],[1,0.5]];portConstraint=eastwest;fontSize=12;whiteSpace=wrap;html=1;" vertex="1" parent="QGc1-MY62SfUArBQq9Xx-178">
          <mxGeometry y="56" width="380" height="30" as="geometry" />
        </mxCell>
        <mxCell id="QGc1-MY62SfUArBQq9Xx-184" value="describe(mota) nvarchar(50) NOT NULL" style="text;strokeColor=none;fillColor=none;spacingLeft=4;spacingRight=4;overflow=hidden;rotatable=0;points=[[0,0.5],[1,0.5]];portConstraint=eastwest;fontSize=12;whiteSpace=wrap;html=1;" vertex="1" parent="QGc1-MY62SfUArBQq9Xx-178">
          <mxGeometry y="86" width="380" height="30" as="geometry" />
        </mxCell>
        <mxCell id="QGc1-MY62SfUArBQq9Xx-189" value="levels" style="text;strokeColor=none;fillColor=none;spacingLeft=4;spacingRight=4;overflow=hidden;rotatable=0;points=[[0,0.5],[1,0.5]];portConstraint=eastwest;fontSize=12;whiteSpace=wrap;html=1;" vertex="1" parent="QGc1-MY62SfUArBQq9Xx-178">
          <mxGeometry y="116" width="380" height="30" as="geometry" />
        </mxCell>
        <mxCell id="QGc1-MY62SfUArBQq9Xx-185" value="" style="shape=table;startSize=0;container=1;collapsible=1;childLayout=tableLayout;fixedRows=1;rowLines=0;fontStyle=0;align=center;resizeLast=1;strokeColor=default;fillColor=none;collapsible=0;swimlaneLine=0;" vertex="1" parent="QGc1-MY62SfUArBQq9Xx-178">
          <mxGeometry y="146" width="380" height="30" as="geometry" />
        </mxCell>
        <mxCell id="QGc1-MY62SfUArBQq9Xx-186" value="" style="shape=tableRow;horizontal=0;startSize=0;swimlaneHead=0;swimlaneBody=0;fillColor=none;collapsible=0;dropTarget=0;points=[[0,0.5],[1,0.5]];portConstraint=eastwest;top=0;left=0;right=0;bottom=0;" vertex="1" parent="QGc1-MY62SfUArBQq9Xx-185">
          <mxGeometry width="380" height="30" as="geometry" />
        </mxCell>
        <mxCell id="QGc1-MY62SfUArBQq9Xx-187" value="&lt;b&gt;&lt;i&gt;FK&lt;/i&gt;&lt;/b&gt;" style="shape=partialRectangle;connectable=0;fillColor=none;top=0;left=0;bottom=0;right=0;fontStyle=0;overflow=hidden;whiteSpace=wrap;html=1;strokeColor=default;" vertex="1" parent="QGc1-MY62SfUArBQq9Xx-186">
          <mxGeometry width="30" height="30" as="geometry">
            <mxRectangle width="30" height="30" as="alternateBounds" />
          </mxGeometry>
        </mxCell>
        <mxCell id="QGc1-MY62SfUArBQq9Xx-188" value="&lt;b&gt;&lt;i&gt;Bus_License_id_BL char(10) NOT NULL&lt;/i&gt;&lt;/b&gt;" style="shape=partialRectangle;connectable=0;fillColor=none;top=0;left=0;bottom=0;right=0;align=left;spacingLeft=6;fontStyle=0;overflow=hidden;whiteSpace=wrap;html=1;" vertex="1" parent="QGc1-MY62SfUArBQq9Xx-186">
          <mxGeometry x="30" width="350" height="30" as="geometry">
            <mxRectangle width="350" height="30" as="alternateBounds" />
          </mxGeometry>
        </mxCell>
        <mxCell id="QGc1-MY62SfUArBQq9Xx-190" value="(hangsanxuat) nvarchar(max) NOT NULL" style="text;strokeColor=none;fillColor=none;spacingLeft=4;spacingRight=4;overflow=hidden;rotatable=0;points=[[0,0.5],[1,0.5]];portConstraint=eastwest;fontSize=12;whiteSpace=wrap;html=1;" vertex="1" parent="QGc1-MY62SfUArBQq9Xx-178">
          <mxGeometry y="176" width="380" height="30" as="geometry" />
        </mxCell>
        <mxCell id="QGc1-MY62SfUArBQq9Xx-211" value="(noiLapRap) nvarchar(max) NOT NULL" style="text;strokeColor=none;fillColor=none;spacingLeft=4;spacingRight=4;overflow=hidden;rotatable=0;points=[[0,0.5],[1,0.5]];portConstraint=eastwest;fontSize=12;whiteSpace=wrap;html=1;" vertex="1" parent="QGc1-MY62SfUArBQq9Xx-178">
          <mxGeometry y="206" width="380" height="30" as="geometry" />
        </mxCell>
        <mxCell id="QGc1-MY62SfUArBQq9Xx-191" value="(rate) varchar(max) NOT NULL" style="text;strokeColor=none;fillColor=none;spacingLeft=4;spacingRight=4;overflow=hidden;rotatable=0;points=[[0,0.5],[1,0.5]];portConstraint=eastwest;fontSize=12;whiteSpace=wrap;html=1;" vertex="1" parent="QGc1-MY62SfUArBQq9Xx-178">
          <mxGeometry y="236" width="380" height="30" as="geometry" />
        </mxCell>
        <mxCell id="QGc1-MY62SfUArBQq9Xx-212" value="ChiNhanhHienCoSanPham nvarchar(max) NOT NULL" style="text;strokeColor=none;fillColor=none;spacingLeft=4;spacingRight=4;overflow=hidden;rotatable=0;points=[[0,0.5],[1,0.5]];portConstraint=eastwest;fontSize=12;whiteSpace=wrap;html=1;" vertex="1" parent="QGc1-MY62SfUArBQq9Xx-178">
          <mxGeometry y="266" width="380" height="30" as="geometry" />
        </mxCell>
        <mxCell id="QGc1-MY62SfUArBQq9Xx-192" value="Branchs" style="swimlane;fontStyle=0;childLayout=stackLayout;horizontal=1;startSize=26;horizontalStack=0;resizeParent=1;resizeParentMax=0;resizeLast=0;collapsible=1;marginBottom=0;align=center;fontSize=14;strokeWidth=1;" vertex="1" parent="1">
          <mxGeometry x="890" y="230" width="330" height="200" as="geometry" />
        </mxCell>
        <mxCell id="QGc1-MY62SfUArBQq9Xx-193" value="" style="shape=table;startSize=0;container=1;collapsible=1;childLayout=tableLayout;fixedRows=1;rowLines=0;fontStyle=0;align=center;resizeLast=1;strokeColor=default;fillColor=none;collapsible=0;" vertex="1" parent="QGc1-MY62SfUArBQq9Xx-192">
          <mxGeometry y="26" width="330" height="30" as="geometry" />
        </mxCell>
        <mxCell id="QGc1-MY62SfUArBQq9Xx-194" value="" style="shape=tableRow;horizontal=0;startSize=0;swimlaneHead=0;swimlaneBody=0;fillColor=none;collapsible=0;dropTarget=0;points=[[0,0.5],[1,0.5]];portConstraint=eastwest;top=0;left=0;right=0;bottom=0;" vertex="1" parent="QGc1-MY62SfUArBQq9Xx-193">
          <mxGeometry width="330" height="30" as="geometry" />
        </mxCell>
        <mxCell id="QGc1-MY62SfUArBQq9Xx-195" value="&lt;b&gt;PK&lt;/b&gt;" style="shape=partialRectangle;connectable=0;fillColor=none;top=0;left=0;bottom=0;right=0;fontStyle=0;overflow=hidden;whiteSpace=wrap;html=1;" vertex="1" parent="QGc1-MY62SfUArBQq9Xx-194">
          <mxGeometry width="30" height="30" as="geometry">
            <mxRectangle width="30" height="30" as="alternateBounds" />
          </mxGeometry>
        </mxCell>
        <mxCell id="QGc1-MY62SfUArBQq9Xx-196" value="&lt;i&gt;&lt;b&gt;id_Branch char(10) NOT NULL&lt;/b&gt;&lt;/i&gt;" style="shape=partialRectangle;connectable=0;fillColor=none;top=0;left=0;bottom=0;right=0;align=left;spacingLeft=6;fontStyle=0;overflow=hidden;whiteSpace=wrap;html=1;" vertex="1" parent="QGc1-MY62SfUArBQq9Xx-194">
          <mxGeometry x="30" width="300" height="30" as="geometry">
            <mxRectangle width="300" height="30" as="alternateBounds" />
          </mxGeometry>
        </mxCell>
        <mxCell id="QGc1-MY62SfUArBQq9Xx-197" value="name_B" style="text;strokeColor=none;fillColor=none;spacingLeft=4;spacingRight=4;overflow=hidden;rotatable=0;points=[[0,0.5],[1,0.5]];portConstraint=eastwest;fontSize=12;whiteSpace=wrap;html=1;" vertex="1" parent="QGc1-MY62SfUArBQq9Xx-192">
          <mxGeometry y="56" width="330" height="30" as="geometry" />
        </mxCell>
        <mxCell id="QGc1-MY62SfUArBQq9Xx-198" value="address_B" style="text;strokeColor=none;fillColor=none;spacingLeft=4;spacingRight=4;overflow=hidden;rotatable=0;points=[[0,0.5],[1,0.5]];portConstraint=eastwest;fontSize=12;whiteSpace=wrap;html=1;" vertex="1" parent="QGc1-MY62SfUArBQq9Xx-192">
          <mxGeometry y="86" width="330" height="30" as="geometry" />
        </mxCell>
        <mxCell id="QGc1-MY62SfUArBQq9Xx-199" value="" style="shape=table;startSize=0;container=1;collapsible=1;childLayout=tableLayout;fixedRows=1;rowLines=0;fontStyle=0;align=center;resizeLast=1;strokeColor=default;fillColor=none;collapsible=0;swimlaneLine=0;" vertex="1" parent="QGc1-MY62SfUArBQq9Xx-192">
          <mxGeometry y="116" width="330" height="24" as="geometry" />
        </mxCell>
        <mxCell id="QGc1-MY62SfUArBQq9Xx-200" value="" style="shape=tableRow;horizontal=0;startSize=0;swimlaneHead=0;swimlaneBody=0;fillColor=none;collapsible=0;dropTarget=0;points=[[0,0.5],[1,0.5]];portConstraint=eastwest;top=0;left=0;right=0;bottom=0;" vertex="1" parent="QGc1-MY62SfUArBQq9Xx-199">
          <mxGeometry width="330" height="24" as="geometry" />
        </mxCell>
        <mxCell id="QGc1-MY62SfUArBQq9Xx-201" value="&lt;b&gt;&lt;i&gt;FK&lt;/i&gt;&lt;/b&gt;" style="shape=partialRectangle;connectable=0;fillColor=none;top=0;left=0;bottom=0;right=0;fontStyle=0;overflow=hidden;whiteSpace=wrap;html=1;strokeColor=default;" vertex="1" parent="QGc1-MY62SfUArBQq9Xx-200">
          <mxGeometry width="30" height="24" as="geometry">
            <mxRectangle width="30" height="24" as="alternateBounds" />
          </mxGeometry>
        </mxCell>
        <mxCell id="QGc1-MY62SfUArBQq9Xx-202" value="&lt;b&gt;&lt;i&gt;Bus_License_id char(10) NOT NULL&lt;/i&gt;&lt;/b&gt;" style="shape=partialRectangle;connectable=0;fillColor=none;top=0;left=0;bottom=0;right=0;align=left;spacingLeft=6;fontStyle=0;overflow=hidden;whiteSpace=wrap;html=1;" vertex="1" parent="QGc1-MY62SfUArBQq9Xx-200">
          <mxGeometry x="30" width="300" height="24" as="geometry">
            <mxRectangle width="300" height="24" as="alternateBounds" />
          </mxGeometry>
        </mxCell>
        <mxCell id="QGc1-MY62SfUArBQq9Xx-204" value="active_B" style="text;strokeColor=none;fillColor=none;spacingLeft=4;spacingRight=4;overflow=hidden;rotatable=0;points=[[0,0.5],[1,0.5]];portConstraint=eastwest;fontSize=12;whiteSpace=wrap;html=1;" vertex="1" parent="QGc1-MY62SfUArBQq9Xx-192">
          <mxGeometry y="140" width="330" height="30" as="geometry" />
        </mxCell>
        <mxCell id="QGc1-MY62SfUArBQq9Xx-205" value="hotline" style="text;strokeColor=none;fillColor=none;spacingLeft=4;spacingRight=4;overflow=hidden;rotatable=0;points=[[0,0.5],[1,0.5]];portConstraint=eastwest;fontSize=12;whiteSpace=wrap;html=1;" vertex="1" parent="QGc1-MY62SfUArBQq9Xx-192">
          <mxGeometry y="170" width="330" height="30" as="geometry" />
        </mxCell>
        <mxCell id="QGc1-MY62SfUArBQq9Xx-207" value="" style="edgeStyle=entityRelationEdgeStyle;endArrow=ERzeroToMany;startArrow=ERone;endFill=1;startFill=0;entryX=1;entryY=0.5;entryDx=0;entryDy=0;" edge="1" parent="1" source="QGc1-MY62SfUArBQq9Xx-152" target="QGc1-MY62SfUArBQq9Xx-200">
          <mxGeometry width="100" height="100" relative="1" as="geometry">
            <mxPoint x="1190" y="266" as="sourcePoint" />
            <mxPoint x="1130" y="500" as="targetPoint" />
            <Array as="points">
              <mxPoint x="1300" y="305" />
              <mxPoint x="1260" y="430" />
            </Array>
          </mxGeometry>
        </mxCell>
        <mxCell id="QGc1-MY62SfUArBQq9Xx-208" value="" style="edgeStyle=entityRelationEdgeStyle;endArrow=ERzeroToMany;startArrow=ERone;endFill=1;startFill=0;" edge="1" parent="1" source="QGc1-MY62SfUArBQq9Xx-166" target="QGc1-MY62SfUArBQq9Xx-180">
          <mxGeometry width="100" height="100" relative="1" as="geometry">
            <mxPoint x="210" y="526" as="sourcePoint" />
            <mxPoint x="350" y="460" as="targetPoint" />
          </mxGeometry>
        </mxCell>
        <mxCell id="QGc1-MY62SfUArBQq9Xx-213" value="" style="edgeStyle=entityRelationEdgeStyle;endArrow=ERzeroToMany;startArrow=ERone;endFill=1;startFill=0;" edge="1" parent="1" source="QGc1-MY62SfUArBQq9Xx-152" target="QGc1-MY62SfUArBQq9Xx-186">
          <mxGeometry width="100" height="100" relative="1" as="geometry">
            <mxPoint x="1140" y="490" as="sourcePoint" />
            <mxPoint x="900" y="627" as="targetPoint" />
            <Array as="points">
              <mxPoint x="1710" y="34" />
              <mxPoint x="1670" y="159" />
            </Array>
          </mxGeometry>
        </mxCell>
      </root>
    </mxGraphModel>
  </diagram>
</mxfile>
